#!OML:ASF F:\VICON\USERDATA\INSTALL\rory3\rory3.ASF
:FULLY-SPECIFIED
:DEGREES
2171
root 1.39397 9.75848 -6.43825 -210.53 173.471 -174.877
lowerback 31.9863 0.49315 -3.49928
upperback 13.1139 -0.342842 -0.658944
thorax -2.52216 -0.240941 1.3921
lowerneck -15.9364 -3.8884 -13.2489
upperneck 22.0764 -3.11264 5.02709
head 9.9763 -1.97691 3.56265
rclavicle -3.01159e-014 1.55052e-014
rhumerus 1.78883 23.8812 -62.3645
rradius 121.098
rwrist 39.4286
rhand -36.6803 21.5923
rfingers 7.12502
rthumb -9.76624 -8.16124
lclavicle -3.01159e-014 1.55052e-014
lhumerus -30.1259 -31.3204 85.4583
lradius 88.6469
lwrist -13.8126
lhand -34.8717 5.30655
lfingers 7.12502
lthumb -8.02095 35.1344
rfemur -117.851 2.25242 73.3444
rtibia 115.074
rfoot 7.44054 -17.3215
rtoes 9.35029
lfemur -60.4917 6.61451 -27.8685
ltibia 86.1021
lfoot 7.15259 -12.1271
ltoes -3.3423
2172
root 1.39191 9.75994 -6.42036 -210.411 173.455 -174.734
lowerback 31.978 0.49751 -3.73748
upperback 13.1526 -0.404079 -0.634999
thorax -2.46571 -0.283237 1.57527
lowerneck -15.9304 -4.2086 -13.615
upperneck 21.6399 -3.50586 5.21596
head 9.87246 -2.15578 3.6286
rclavicle 1.93815e-014 -1.59028e-015
rhumerus 3.79723 23.6819 -61.6356
rradius 120.701
rwrist 39.636
rhand -38.0696 21.4285
rfingers 7.12502
rthumb -11.1064 -8.25765
lclavicle 1.93815e-014 -1.59028e-015
lhumerus -30.1917 -31.2544 85.4966
lradius 88.67
lwrist -13.5882
lhand -35.0889 4.7505
lfingers 7.12502
lthumb -8.23053 34.5702
rfemur -117.916 2.48803 73.0949
rtibia 115.08
rfoot 7.31913 -17.0026
rtoes 10.9486
lfemur -60.5809 6.6854 -28.0097
ltibia 86.1609
lfoot 7.03091 -12.2183
ltoes -3.64909
2173
root 1.38913 9.76265 -6.41189 -210.234 173.507 -174.749
lowerback 31.9185 0.438988 -3.73879
upperback 13.2159 -0.473518 -0.607644
thorax -2.36316 -0.321904 1.62817
lowerneck -15.91 -4.54909 -13.9516
upperneck 21.0007 -3.94154 5.44013
head 9.70094 -2.34251 3.69314
rclavicle -3.18055e-015 -1.19271e-015
rhumerus 5.87107 23.4235 -60.9594
rradius 120.504
rwrist 39.3959
rhand -37.9589 20.3156
rfingers 7.12502
rthumb -10.9997 -9.37625
lclavicle -3.18055e-015 -1.19271e-015
lhumerus -29.8631 -31.1373 85.2071
lradius 88.5649
lwrist -14.1355
lhand -35.3116 4.96834
lfingers 7.12502
lthumb -8.44554 34.7795
rfemur -117.928 2.74085 73.0204
rtibia 115.001
rfoot 7.33815 -16.4661
rtoes 13.3508
lfemur -60.7867 6.72697 -27.973
ltibia 86.2112
lfoot 6.90532 -12.3243
ltoes -4.30708
2174
root 1.38621 9.76737 -6.40704 -210.11 173.642 -174.886
lowerback 31.9955 0.389718 -3.58097
upperback 13.1947 -0.493038 -0.560006
thorax -2.4231 -0.326474 1.59746
lowerneck -15.7314 -4.8621 -14.1199
upperneck 20.4247 -4.37956 5.55193
head 9.51941 -2.53356 3.6927
rclavicle 1.2921e-014 -4.37326e-015
rhumerus 7.7363 22.9494 -60.3564
rradius 120.436
rwrist 38.7117
rhand -38.0684 20.3845
rfingers 7.12502
rthumb -11.1053 -9.30166
lclavicle 1.2921e-014 -4.37326e-015
lhumerus -29.7791 -30.8875 84.9212
lradius 88.6627
lwrist -15.3444
lhand -35.11 5.50763
lfingers 7.12502
lthumb -8.25093 35.3265
rfemur -117.818 2.91378 73.1413
rtibia 114.894
rfoot 7.41435 -15.8951
rtoes 14.5264
lfemur -60.9613 6.79254 -27.7465
ltibia 86.2781
lfoot 6.91884 -12.4029
ltoes -4.57552
2175
root 1.38492 9.77048 -6.40133 -210.027 173.826 -175.004
lowerback 32.2022 0.349532 -3.40673
upperback 13.0799 -0.505473 -0.528938
thorax -2.6477 -0.322936 1.53822
lowerneck -15.3119 -5.14421 -14.3608
upperneck 19.8492 -4.81136 5.74473
head 9.29978 -2.72313 3.73778
rclavicle -5.66536e-015 3.97569e-016
rhumerus 9.4581 22.6512 -59.8113
rradius 120.808
rwrist 36.5381
rhand -36.4622 20.0601
rfingers 7.12502
rthumb -9.5558 -9.70322
lclavicle -5.66536e-015 3.97569e-016
lhumerus -30.0423 -30.7655 84.9108
lradius 88.7941
lwrist -15.9485
lhand -35.1207 6.18609
lfingers 7.12502
lthumb -8.26125 36.0046
rfemur -117.653 3.07866 73.2896
rtibia 114.791
rfoot 7.38726 -15.466
rtoes 13.7513
lfemur -61.1056 6.9275 -27.5284
ltibia 86.349
lfoot 6.89654 -12.4656
ltoes -4.41965
2176
root 1.38539 9.77135 -6.38861 -209.889 173.859 -174.931
lowerback 32.2444 0.325058 -3.40068
upperback 13.0471 -0.543076 -0.611143
thorax -2.70325 -0.337476 1.45617
lowerneck -15.0752 -5.45446 -14.4411
upperneck 19.3002 -5.29244 5.93586
head 9.12601 -2.92333 3.74888
rclavicle 9.93923e-016 -1.27222e-014
rhumerus 11.207 20.6739 -59.8235
rradius 118.971
rwrist 39.4978
rhand -40.0764 24.5522
rfingers 7.12502
rthumb -13.0414 -5.02011
lclavicle 9.93923e-016 -1.27222e-014
lhumerus -30.204 -30.8606 84.7741
lradius 88.8806
lwrist -15.9313
lhand -35.342 6.24051
lfingers 7.12502
lthumb -8.47479 36.0505
rfemur -117.684 3.28238 73.1873
rtibia 114.764
rfoot 7.42143 -14.9344
rtoes 11.8738
lfemur -61.2461 6.98523 -27.5892
ltibia 86.3743
lfoot 6.89507 -12.4372
ltoes -4.14444
2177
root 1.3865 9.77299 -6.37424 -209.803 173.768 -174.626
lowerback 32.2059 0.326923 -3.65561
upperback 13.1761 -0.617367 -0.742524
thorax -2.53023 -0.383372 1.4796
lowerneck -15.2212 -5.77306 -14.6279
upperneck 18.7815 -5.70965 6.19006
head 9.03305 -3.0908 3.80296
rclavicle 2.87244e-014 1.19271e-014
rhumerus 13.2242 19.3879 -59.6074
rradius 117.987
rwrist 40.8643
rhand -41.969 25.7406
rfingers 7.12502
rthumb -14.8653 -3.70614
lclavicle 2.87244e-014 1.19271e-014
lhumerus -30.0904 -30.7733 84.4812
lradius 88.9693
lwrist -16.0652
lhand -35.2601 6.3016
lfingers 7.12502
lthumb -8.39577 36.1147
rfemur -117.792 3.42282 72.8498
rtibia 114.795
rfoot 7.65007 -14.6601
rtoes 10.6316
lfemur -61.2398 7.00225 -27.9347
ltibia 86.4041
lfoot 6.74366 -12.3828
ltoes -4.48585
2178
root 1.38427 9.77838 -6.37177 -209.678 173.854 -174.731
lowerback 32.2163 0.229484 -3.527
upperback 13.217 -0.703954 -0.744469
thorax -2.48687 -0.423196 1.43159
lowerneck -15.2741 -6.03103 -14.7497
upperneck 18.2554 -6.03801 6.29506
head 8.90625 -3.22906 3.80747
rclavicle -1.68967e-014 -6.75868e-015
rhumerus 15.0188 19.0419 -59.3328
rradius 117.992
rwrist 40.0874
rhand -41.8818 24.7989
rfingers 7.12502
rthumb -14.7812 -4.65398
lclavicle -1.68967e-014 -6.75868e-015
lhumerus -30.1133 -30.7594 84.3674
lradius 89.0348
lwrist -15.5957
lhand -35.6672 6.12225
lfingers 7.12502
lthumb -8.78862 35.9193
rfemur -117.719 3.52877 72.9778
rtibia 114.676
rfoot 7.48146 -14.6779
rtoes 12.6302
lfemur -61.3554 7.05099 -27.7988
ltibia 86.3639
lfoot 6.74885 -12.449
ltoes -4.46181
2179
root 1.3803 9.78672 -6.38065 -209.454 173.953 -174.826
lowerback 32.1783 0.149162 -3.39023
upperback 13.1926 -0.766995 -0.752903
thorax -2.49948 -0.449204 1.36413
lowerneck -15.2796 -6.32632 -14.8073
upperneck 17.6782 -6.43894 6.40276
head 8.76059 -3.3969 3.79334
rclavicle 1.98785e-016 -1.70955e-014
rhumerus 16.5919 19.0829 -58.9147
rradius 118.618
rwrist 37.9316
rhand -41.0446 22.6699
rfingers 7.12502
rthumb -13.9746 -6.84046
lclavicle 1.98785e-016 -1.70955e-014
lhumerus -30.2674 -30.9357 84.3969
lradius 89.091
lwrist -14.7628
lhand -36.1986 6.58137
lfingers 7.12502
lthumb -9.30143 36.3562
rfemur -117.627 3.64702 73.1419
rtibia 114.48
rfoot 7.33571 -14.6244
rtoes 14.4049
lfemur -61.5831 7.1291 -27.6823
ltibia 86.3012
lfoot 6.81539 -12.5386
ltoes -4.32231
2180
root 1.37935 9.79125 -6.37762 -209.324 173.935 -174.853
lowerback 32.1304 0.111032 -3.29286
upperback 13.1968 -0.784322 -0.751232
thorax -2.47573 -0.454269 1.3152
lowerneck -15.0652 -6.65294 -15.0068
upperneck 17.021 -6.90968 6.65482
head 8.56882 -3.59609 3.8467
rclavicle 9.64106e-015 7.55382e-015
rhumerus 18.2767 18.8198 -58.3429
rradius 119.072
rwrist 35.3418
rhand -40.2088 20.326
rfingers 7.12502
rthumb -13.1691 -9.23808
lclavicle 9.64106e-015 7.55382e-015
lhumerus -30.466 -31.1363 84.506
lradius 89.2382
lwrist -14.2773
lhand -36.4988 6.9654
lfingers 7.12502
lthumb -9.59108 36.7271
rfemur -117.672 3.72371 73.1436
rtibia 114.378
rfoot 7.53689 -14.5014
rtoes 15.3892
lfemur -61.7417 7.13592 -27.6929
ltibia 86.2773
lfoot 6.81698 -12.6019
ltoes -4.46463
